<svg id="Layer_2" data-name="Layer 2" xmlns="http://www.w3.org/2000/svg" xmlns:xlink="http://www.w3.org/1999/xlink" viewBox="0 0 691.18 266.69"><defs><style>.cls-1{fill:#fff}.cls-2{fill:#f9bb17}.cls-3{fill:url(#linear-gradient)}.cls-4{fill:url(#linear-gradient-2)}.cls-5{fill:#00316b}</style><linearGradient id="linear-gradient" x1="203.7" y1="66.12" x2="222.71" y2="33.19" gradientUnits="userSpaceOnUse"><stop offset="0" stop-color="#f6eb14"/><stop offset="1" stop-color="#f7941d"/></linearGradient><linearGradient id="linear-gradient-2" x1="156.09" y1="66.01" x2="173.52" y2="35.81" xlink:href="#linear-gradient"/></defs><title>logo_over_black</title><path class="cls-1" d="M246.52 99.61c0 21.53-26.74 39.66-56.62 39.66-32.08 0-55.91-18.2-55.91-40.1 0-31.06 25.74-39.21 55.91-39.21s56.62 10.79 56.62 39.65zM51.71 215.34V205.2a37.26 37.26 0 0 1-11.62 8.58 30.44 30.44 0 0 1-13 3.06A27.14 27.14 0 0 1 13 213a24.94 24.94 0 0 1-9.73-10.39Q0 196.09 0 180.86v-46.34h15.85v46.22q0 12.76 3.64 17.83t12.79 5q11.43 0 19.44-11.16v-57.89h15.82v80.82zM85.62 209.66v-17.15a73.11 73.11 0 0 0 13.72 7.59c4.66 1.95 8.66 2.9 11.82 2.9a14.61 14.61 0 0 0 8.53-2.46c2.38-1.66 3.59-3.62 3.59-5.92a8 8 0 0 0-2.32-5.87c-1.54-1.55-4.85-3.82-9.95-6.74q-15.31-8.66-20-14.79a21.31 21.31 0 0 1-4.74-13.37 18.82 18.82 0 0 1 7.19-15.24c4.81-3.94 11-5.92 18.55-5.92 7.87 0 15.89 2.23 24.16 6.69v15.84q-14.17-8.7-23.17-8.68a12.64 12.64 0 0 0-7.46 2 6.21 6.21 0 0 0-2.87 5.31 7.69 7.69 0 0 0 2.56 5.43c1.69 1.72 4.71 3.79 9 6.21l5.66 3.25Q140 180.18 140 194.12a20.26 20.26 0 0 1-7.75 16.34q-7.69 6.4-19.84 6.39a49.11 49.11 0 0 1-12.74-1.53 84.71 84.71 0 0 1-14.05-5.66z"/><path class="cls-1" d="M177.8 151.78q5.46-5.24 14.07-5.24t13.7 5.24q5.07 5.23 5.69 14.88h-40.63c1.12-6.43 3.48-11.4 7.17-14.88zm49.31 22.48q0-18.95-9.51-30.26t-25.46-11.27q-16.59 0-27 11.58t-10.34 30.05a46.21 46.21 0 0 0 4.91 21.7A40.3 40.3 0 0 0 172.83 211c5.45 3.67 12.59 5.54 21.42 5.54a60.66 60.66 0 0 0 16.86-2.1 52.68 52.68 0 0 0 14.5-7v-15.52a48.23 48.23 0 0 1-28.93 9.61c-7.5 0-13.6-2.3-18.34-6.85S171 184 170.63 176.29h56.48zM261.46 134.52v18.36l.88-1.41c7.67-12.5 15.38-18.75 23-18.75 6 0 12.27 3.05 18.79 9.11l-8.39 14Q287.5 148 280.42 148q-7.72 0-13.33 7.4a28.17 28.17 0 0 0-5.63 17.6v42.37h-16.13v-80.85z"/><path class="cls-2" d="M307.83 134.52h68.73L334 200.33h42.57v15H306l42.55-65.8h-40.72zM442.53 156.2a25.58 25.58 0 0 1 7.77 19.11q0 11.63-7.47 19.06t-19.17 7.45q-11.82 0-19.32-7.35t-7.52-19c0-7.78 2.44-14.23 7.34-19.28s11.15-7.56 18.8-7.56q11.77.01 19.57 7.57zm-49.59-10.13q-12.25 11.84-12.26 29.65 0 17.62 12.15 29.36t30.23 11.76q18.73 0 31.06-11.58t12.3-29.13q0-18-12.16-30t-30.49-11.93q-18.52.02-30.82 11.87zM536.82 156.2a25.56 25.56 0 0 1 7.77 19.11q0 11.63-7.47 19.06T518 201.82q-11.81 0-19.33-7.35t-7.52-19c0-7.78 2.44-14.23 7.33-19.28s11.17-7.56 18.81-7.56q11.71.01 19.53 7.57zm-49.56-10.13Q475 157.91 475 175.72q0 17.62 12.15 29.36t30.25 11.76q18.72 0 31-11.58t12.32-29.13q0-18-12.15-30t-30.5-11.93q-18.54.02-30.81 11.87zM640.38 156.64v58.7h-16.14v-45.2c0-9-1.2-15.3-3.58-18.85s-6.55-5.35-12.48-5.35a18.33 18.33 0 0 0-9.13 2.35 40.94 40.94 0 0 0-9.48 8.35v58.7h-15.83v-80.82h15.83v10.62q12.18-12.41 23.82-12.42 15.3 0 23.73 14.77 12.83-14.76 26.79-14.77a24.7 24.7 0 0 1 19.38 8.61q7.58 8.62 7.59 26.29v47.72H675V167c0-6.81-1.37-12-4.13-15.62s-6.74-5.41-11.91-5.41q-9.96-.03-18.58 10.67z"/><path class="cls-1" d="M195 40.18s4.44-4.52 15.85-6.54 15.91-1.23 19.21 1.31c3.65 2.81 4.86 5.45 5 10.3.33 7.95-2.19 14.2-5.64 18-2.7 3-7.59 7.59-22.11 6-10.93-1.21-16.74-9.58-17.27-15-.35-3.71-.6-9.43 4.96-14.07z"/><path class="cls-3" d="M195.26 40.47s5-4 15.71-5.44c10.32-1.35 14.47-.43 17.66 1.58s4.54 5.67 4.54 9.39c0 7.12-1.39 14-4.47 17.13-4.6 4.64-12.27 5.32-20.88 3.79-10.1-1.78-13.63-8.62-14.53-11.07-1.29-3.48-2.62-10.75 1.97-15.38z"/><path d="M217 51.3a7 7 0 0 1-13.93 0 6.71 6.71 0 0 1 7-6.62c3.59 0 6.93 2.49 6.93 6.62z"/><path class="cls-1" d="M209.82 46.17a1.75 1.75 0 1 1-1.73-1.64 1.72 1.72 0 0 1 1.73 1.64zM184.23 39.07s-5.28-4-16.68-6-16-.6-19.34 1.94c-3.64 2.81-5 5.45-5.13 10.3-.33 7.95 1.78 14.2 5.24 18 2.7 3 7.29 8.57 21.73 6.37 10.55-1.6 16.65-9.81 18-15.08.78-3 2.5-10.16-3.82-15.53zM154.61 7.59s29.39 5.49 35.64 24.64c0 0 19.59-21.77 49.27-32.23 0 0-31.82 13.55-51 38.36 0 0-6.84-25.54-33.87-30.77z"/><path class="cls-4" d="M184.2 42.89c-2.4-2.42-4.51-4.57-15.68-7.29-10.11-2.46-15.47-2.43-19.11 0-2.85 1.87-4.29 4.19-4.29 8.83 0 7.18 1.6 13.84 5.67 17.94 4.6 4.64 13.54 6.78 22.16 5.26 10.1-1.79 13.08-8.07 13.83-12.43.59-3.64-.17-9.87-2.58-12.31z"/><path d="M176.86 51.3a7 7 0 0 1-13.93 0 6.72 6.72 0 0 1 7-6.62c3.61 0 6.93 2.49 6.93 6.62z"/><path class="cls-1" d="M169.69 46.17a1.74 1.74 0 1 1-1.69-1.65 1.73 1.73 0 0 1 1.69 1.65z"/><path class="cls-5" d="M182.25 72.34c1.95 2.76 3.77 5.05 5.42 7.65.22.92-1.21 3.28-1.21 3.28h.94l6.49-9.65-5.36 4.38c-1.53-2.48-6.28-5.66-6.28-5.66z"/><path class="cls-1" d="M149.85 65.88s-7-3.75-15.4 5.54c-8 8.83-4.51 24.25-1.37 28.18 0 0-5.59-12 1.52-22.89 6.93-10.59 16-7.77 16-7.77zM229.76 66.12s7-3.75 15.4 5.54c8 8.83 4.51 24.25 1.37 28.18 0 0 5.59-12-1.52-22.89-6.93-10.59-16-7.77-16-7.77z"/><path class="cls-5" d="M184.73 131.49l2.26 2.28c-3.88 2-6 5.91-4.53 14.8 0 0-2.26-1.3-2.35-2.25-.41-4.32-1.63-11.32 4.62-14.83z"/><path class="cls-5" d="M179.2 131.31l1.83 2.31c-3.59 1.43-5.64 4.26-4.48 11.29 0 0-2-1.09-2.11-1.84-.3-3.36-1.67-9.3 4.76-11.76z"/><path class="cls-5" d="M174.35 131.37l1.89 2.12c-3.74 1.72-5.34 3.62-4.36 9.51 0 0-1.54-.93-1.76-1.54-.62-1.78-3.04-7.36 4.23-10.09zM199.64 131.35l-2.26 2.27c3.88 2 6 5.92 4.51 14.8 0 0 2.26-1.29 2.35-2.25.43-4.27 1.65-11.27-4.6-14.82z"/><path class="cls-5" d="M205.1 131.28l-1.81 2.29c3.59 1.46 5.63 4.28 4.48 11.31 0 0 2-1.08 2.1-1.82.29-3.38 1.66-9.31-4.77-11.78z"/><path class="cls-5" d="M210 131l-1.88 2.12c3.76 1.72 5.33 3.63 4.36 9.51 0 0 1.55-.94 1.75-1.53.67-1.77 3.07-7.36-4.23-10.1z"/><path class="cls-1" d="M149.81 65.87c-14.44 9.06-19.62 22.37-16.78 37.71 2.18 11.77 11.64 21.15 21.33 26.63-.45-.29-1.21-.75-2.08-1.33C141.93 122 132.34 107 135 91.23c1.65-9.72 9.07-18.61 15.81-22.28l-1-3.07zM229.91 66.72c14.44 9.06 19.61 22.65 16.52 37.94-2.21 10.94-11.43 20-21.12 25.44.45-.29 1.16-.63 2-1.21 10.35-6.88 20-21.08 17.35-36.82-1.65-9.72-9.07-18.61-15.81-22.28l1-3.07zM172.93 240.88l-11.33 14.21h9.94l-.61 2.86h-15.48l11.14-14.21H158l.37-2.86zM183.54 240.36a5.76 5.76 0 0 1 4.61 2 8.05 8.05 0 0 1 1.73 5.41 12.14 12.14 0 0 1-2.34 7.68 7 7 0 0 1-5.75 3 5.83 5.83 0 0 1-4.71-2 8.45 8.45 0 0 1-1.71-5.62 11.75 11.75 0 0 1 2.36-7.48 7.13 7.13 0 0 1 5.81-2.99zm0 2.54q-2 0-3.42 2.46a11.33 11.33 0 0 0-1.44 5.82 5.67 5.67 0 0 0 .86 3.27 2.53 2.53 0 0 0 2.14 1.26 4.11 4.11 0 0 0 3.46-2.3 10.74 10.74 0 0 0 1.44-5.79 6.21 6.21 0 0 0-.83-3.43 2.53 2.53 0 0 0-2.21-1.29zM202 240.36a5.76 5.76 0 0 1 4.61 2 8.05 8.05 0 0 1 1.73 5.41 12.14 12.14 0 0 1-2.34 7.68 7 7 0 0 1-5.75 3 5.83 5.83 0 0 1-4.71-2 8.45 8.45 0 0 1-1.71-5.62 11.75 11.75 0 0 1 2.36-7.48 7.13 7.13 0 0 1 5.81-2.99zm0 2.54q-2 0-3.42 2.46a11.33 11.33 0 0 0-1.44 5.82 5.67 5.67 0 0 0 .86 3.27 2.53 2.53 0 0 0 2.14 1.26 4.11 4.11 0 0 0 3.46-2.3 10.74 10.74 0 0 0 1.44-5.79 6.21 6.21 0 0 0-.83-3.43 2.53 2.53 0 0 0-2.21-1.29zM217.37 240.88l-.42 2.95q3-3.21 5.94-3.21 3.3 0 3.87 3.84 3.11-3.84 6.38-3.84a3.71 3.71 0 0 1 2.92 1.24 5.07 5.07 0 0 1 1.1 3.49 11.72 11.72 0 0 1-.11 1.54l-1.56 11.06h-3.22l1.6-11.21a6.81 6.81 0 0 0 .09-1.08q0-2.5-1.84-2.5a3.13 3.13 0 0 0-1 .19 6 6 0 0 0-1.24.64 13.15 13.15 0 0 0-1.86 1.62 5 5 0 0 0-1.23 1.5l-1.56 10.84H222l1.52-10.8a9 9 0 0 0 .13-1.43q0-2.56-2-2.56-1.28 0-3.18 1.79a8.69 8.69 0 0 0-2 2.16l-1.54 10.83h-3.22l2.43-17.07zM246.9 240.88l-2.39 17.07h-3.22l2.39-17.07zm-2.9-5.35a1.8 1.8 0 0 1 .55-1.33 1.84 1.84 0 0 1 2.62 0 1.81 1.81 0 0 1 .55 1.33 1.86 1.86 0 0 1-3.71 0zM255.73 240.88l-.43 3 .09.06q2.73-3.34 5.66-3.34a3.63 3.63 0 0 1 3.08 1.46 6.09 6.09 0 0 1 1.09 3.76 8.66 8.66 0 0 1-.11 1.35l-1.64 10.76h-3.19l1.56-10.87a6.69 6.69 0 0 0 .09-1.06 3.23 3.23 0 0 0-.56-2 1.71 1.71 0 0 0-1.4-.71 3 3 0 0 0-1.09.24 6 6 0 0 0-1.29.74 15.1 15.1 0 0 0-1.7 1.52 4.24 4.24 0 0 0-1.05 1.3l-1.56 10.87h-3.18l2.39-17.07zM285.1 240.88l-.33 2.52h-3.3a5.74 5.74 0 0 1 1.13 3.38 7 7 0 0 1-.92 3.6 5.35 5.35 0 0 1-2.25 2.2 13.53 13.53 0 0 1-3.42 1 8.38 8.38 0 0 0-2.65.76 1.09 1.09 0 0 0-.56.9.89.89 0 0 0 .48.71 16.91 16.91 0 0 0 3.48 1A8.82 8.82 0 0 1 281 259a4 4 0 0 1 1.2 2.87 4.13 4.13 0 0 1-2 3.47 8.44 8.44 0 0 1-5 1.39 10.19 10.19 0 0 1-5.33-1.26 3.67 3.67 0 0 1-2.09-3.15q0-2.47 4.92-3.53-3-1.1-3-3a2.54 2.54 0 0 1 .91-1.85 5.86 5.86 0 0 1 2.47-1.31 5 5 0 0 1-3.08-4.9 6.77 6.77 0 0 1 1.86-4.84 6 6 0 0 1 4.48-2zm-9.65 23.38a5.06 5.06 0 0 0 2.63-.59 1.76 1.76 0 0 0 1-1.54q0-.93-1.61-1.68a6.71 6.71 0 0 0-2.19-.75 8.25 8.25 0 0 0-2.57.77q-1.85.77-1.85 1.74t1.23 1.5a8.34 8.34 0 0 0 3.37.54zm.72-13.34a2.92 2.92 0 0 0 2.4-1.2 4.4 4.4 0 0 0 .94-2.79 3.53 3.53 0 0 0-.86-2.46 2.81 2.81 0 0 0-2.18-1 3 3 0 0 0-2.34 1.21 4.09 4.09 0 0 0-1 2.75 3.57 3.57 0 0 0 .87 2.48 2.84 2.84 0 0 0 2.18 1zM304.28 240.88l-2.39 17.07h-3.22l2.39-17.07zm-2.87-5.34a1.8 1.8 0 0 1 .55-1.33 1.84 1.84 0 0 1 2.62 0 1.81 1.81 0 0 1 .55 1.33 1.86 1.86 0 0 1-3.71 0zM313.1 240.88l-.43 3 .09.06q2.73-3.34 5.66-3.34a3.63 3.63 0 0 1 3.08 1.46 6.09 6.09 0 0 1 1.09 3.76 8.66 8.66 0 0 1-.11 1.35l-1.64 10.76h-3.19l1.56-10.87a6.69 6.69 0 0 0 .09-1.06 3.23 3.23 0 0 0-.56-2 1.71 1.71 0 0 0-1.4-.71 3 3 0 0 0-1.09.24 6 6 0 0 0-1.29.74 15.1 15.1 0 0 0-1.7 1.52 4.24 4.24 0 0 0-1.05 1.3l-1.56 10.87h-3.19l2.39-17.07zM347.07 240.36a5.76 5.76 0 0 1 4.61 2 8.05 8.05 0 0 1 1.73 5.41 12.14 12.14 0 0 1-2.34 7.68 7 7 0 0 1-5.75 3 5.83 5.83 0 0 1-4.71-2 8.45 8.45 0 0 1-1.71-5.62 11.75 11.75 0 0 1 2.36-7.48 7.13 7.13 0 0 1 5.81-2.99zm0 2.54q-2 0-3.42 2.46a11.33 11.33 0 0 0-1.44 5.82 5.67 5.67 0 0 0 .86 3.27 2.53 2.53 0 0 0 2.14 1.26 4.11 4.11 0 0 0 3.46-2.3 10.74 10.74 0 0 0 1.44-5.79 6.21 6.21 0 0 0-.83-3.43 2.53 2.53 0 0 0-2.21-1.29zM362.74 240.88l-.43 3 .09.06q2.73-3.34 5.66-3.34a3.63 3.63 0 0 1 3.08 1.46 6.09 6.09 0 0 1 1.09 3.76 8.66 8.66 0 0 1-.11 1.35l-1.64 10.76h-3.19l1.56-10.87a6.69 6.69 0 0 0 .09-1.06 3.23 3.23 0 0 0-.56-2 1.71 1.71 0 0 0-1.4-.71 3 3 0 0 0-1.09.24 6 6 0 0 0-1.29.74 15.1 15.1 0 0 0-1.7 1.52 4.24 4.24 0 0 0-1.05 1.3l-1.56 10.87h-3.19l2.39-17.07zM398 240.88l-.35 2.52h-3.4l-1.66 9.33a6.74 6.74 0 0 0-.13 1.19q0 1.67 1.8 1.67a6.5 6.5 0 0 0 3.12-1l-.19 3.15a9 9 0 0 1-3.54.76 4.84 4.84 0 0 1-3.31-1.07 3.56 3.56 0 0 1-1.22-2.81 5 5 0 0 1 .08-.87l1.8-10.35h-3l.39-2.52h3.12l.62-3.49h3.19l-.62 3.49zM406.93 232l-1.63 11.6.07.07q2.87-3.34 5.91-3.34a3.57 3.57 0 0 1 2.92 1.27 5.22 5.22 0 0 1 1 3.42 9 9 0 0 1-.09 1.26l-1.63 11.63h-3.22l1.63-11.82a6.77 6.77 0 0 0 .06-.84q0-2.5-2-2.5-1.45 0-3.29 1.86a10.15 10.15 0 0 0-1.89 2.2l-1.56 11.1h-3.22l3.72-25.91zM433.24 253.49l-.46 3.08a9.4 9.4 0 0 1-5.7 1.91 6.53 6.53 0 0 1-5.19-2.26 8.83 8.83 0 0 1-2-6 10.68 10.68 0 0 1 2.35-7 7.18 7.18 0 0 1 5.74-2.85 5.48 5.48 0 0 1 4.32 2 7.59 7.59 0 0 1 1.73 5.15 11.81 11.81 0 0 1-.11 1.6h-10.61a9.47 9.47 0 0 0-.15 1.63 5.19 5.19 0 0 0 1.29 3.72 4.27 4.27 0 0 0 3.24 1.37q2.38-.03 5.55-2.35zm-9.43-6.64H431a4.44 4.44 0 0 0-.81-2.81 2.72 2.72 0 0 0-2.27-1q-2.83-.04-4.11 3.81zM465.16 240.88l-2.43 17.07h-3.19l.3-2.89q-3 3.16-5.62 3.15a3.91 3.91 0 0 1-2.92-1.21 4.84 4.84 0 0 1-1.2-3.52 9.62 9.62 0 0 1 .09-1.32l1.6-11.26H455l-1.59 11.26a7.86 7.86 0 0 0-.07 1q0 2.56 1.89 2.56t5.14-3.77l1.56-11.1zM480 242.14v3.38q-3-2.24-5.14-2.24a2.58 2.58 0 0 0-1.65.53 1.58 1.58 0 0 0-.67 1.27 1.73 1.73 0 0 0 .42 1 14.14 14.14 0 0 0 2.63 2 10.14 10.14 0 0 1 3 2.73 4.75 4.75 0 0 1 .77 2.52 4.85 4.85 0 0 1-1.49 3.67 5.27 5.27 0 0 1-3.79 1.43 10.13 10.13 0 0 1-5.92-2.25l.56-3.12q3.19 2.54 5.25 2.54a2.33 2.33 0 0 0 1.59-.54 1.72 1.72 0 0 0 .62-1.36 2.17 2.17 0 0 0-.45-1.25 12.93 12.93 0 0 0-2.64-2.16 10 10 0 0 1-2.9-2.71 4.65 4.65 0 0 1-.71-2.39 4.59 4.59 0 0 1 1.47-3.55 5.54 5.54 0 0 1 3.9-1.35 9.17 9.17 0 0 1 5.15 1.85zM497.35 253.49l-.46 3.08a9.4 9.4 0 0 1-5.7 1.91 6.53 6.53 0 0 1-5.19-2.26 8.83 8.83 0 0 1-2-6 10.68 10.68 0 0 1 2.35-7 7.18 7.18 0 0 1 5.74-2.85 5.48 5.48 0 0 1 4.32 2 7.59 7.59 0 0 1 1.73 5.15 11.81 11.81 0 0 1-.11 1.6h-10.61a9.47 9.47 0 0 0-.15 1.63 5.19 5.19 0 0 0 1.29 3.72 4.27 4.27 0 0 0 3.24 1.37q2.38-.03 5.55-2.35zm-9.43-6.64h7.15a4.44 4.44 0 0 0-.81-2.81 2.72 2.72 0 0 0-2.27-1q-2.79-.04-4.07 3.81zM507.67 240.88l-.5 3.25.07.07a14.82 14.82 0 0 1 2.42-2.88 3.32 3.32 0 0 1 2.12-.71 3.79 3.79 0 0 1 1.41.26v3.66a4 4 0 0 0-2-.58 3.09 3.09 0 0 0-1.69.47 7.46 7.46 0 0 0-1.8 2 7.71 7.71 0 0 0-1.1 1.88l-1.34 9.61h-3.22l2.39-17.07zM540.66 253.49l-.46 3.08a9.4 9.4 0 0 1-5.7 1.91 6.53 6.53 0 0 1-5.19-2.26 8.83 8.83 0 0 1-2-6 10.68 10.68 0 0 1 2.35-7 7.18 7.18 0 0 1 5.74-2.85 5.48 5.48 0 0 1 4.32 2 7.59 7.59 0 0 1 1.73 5.15 11.81 11.81 0 0 1-.11 1.6h-10.61a9.47 9.47 0 0 0-.15 1.63 5.19 5.19 0 0 0 1.29 3.72 4.27 4.27 0 0 0 3.24 1.37q2.38-.03 5.55-2.35zm-9.43-6.64h7.15a4.44 4.44 0 0 0-.81-2.81 2.72 2.72 0 0 0-2.27-1q-2.79-.04-4.07 3.81zM560.79 240.88l-6.87 8.47 4.33 8.6h-3.45l-3.12-6.37-4.92 6.37h-4l7.44-9.07-4-8h3.45l2.71 5.76 4.44-5.76zM569.52 236.55l-.61 4.32a7.75 7.75 0 0 1 2.9-.52 6.51 6.51 0 0 1 5 2.26 8.18 8.18 0 0 1 2 5.68 10.32 10.32 0 0 1-2.76 7.13 9.64 9.64 0 0 1-7.55 3.06h-2.13l-1.13 8.2h-3.22l3-21.58a8.15 8.15 0 0 0-1.88 1.93 5.32 5.32 0 0 1-1 1.19c-.1 0-.15-.08-.15-.24a5.43 5.43 0 0 1 1-2.46 10.3 10.3 0 0 1 2.33-2.7l.87-6.27zm-.95 6.72l-1.74 12.47h1.56a6.62 6.62 0 0 0 5.24-2.22 7.65 7.65 0 0 0 1.95-5.22 5.68 5.68 0 0 0-1.37-4.05 4.59 4.59 0 0 0-3.49-1.46 4.85 4.85 0 0 0-2.15.48zM596.37 253.49l-.46 3.08a9.4 9.4 0 0 1-5.7 1.91 6.53 6.53 0 0 1-5.19-2.26 8.83 8.83 0 0 1-2-6 10.68 10.68 0 0 1 2.35-7 7.18 7.18 0 0 1 5.74-2.85 5.48 5.48 0 0 1 4.32 2 7.59 7.59 0 0 1 1.73 5.15 11.81 11.81 0 0 1-.11 1.6h-10.61a9.47 9.47 0 0 0-.15 1.63 5.19 5.19 0 0 0 1.29 3.72 4.27 4.27 0 0 0 3.24 1.37q2.38-.03 5.55-2.35zm-9.43-6.64h7.15a4.44 4.44 0 0 0-.81-2.81 2.72 2.72 0 0 0-2.27-1q-2.79-.04-4.07 3.81zM606.69 240.88l-.5 3.25.07.07a14.86 14.86 0 0 1 2.41-2.88 3.32 3.32 0 0 1 2.12-.71 3.8 3.8 0 0 1 1.41.26v3.66a4.05 4.05 0 0 0-2-.58 3.09 3.09 0 0 0-1.69.47 7.46 7.46 0 0 0-1.8 2 7.64 7.64 0 0 0-1.1 1.88l-1.34 9.61h-3.22l2.39-17.07zM620.22 240.88l-2.39 17.07h-3.23l2.4-17.07zm-2.87-5.34a1.81 1.81 0 0 1 .55-1.33 1.84 1.84 0 0 1 2.62 0 1.81 1.81 0 0 1 .55 1.33 1.86 1.86 0 0 1-3.71 0zM637 253.49l-.46 3.08a9.4 9.4 0 0 1-5.7 1.91 6.53 6.53 0 0 1-5.19-2.26 8.83 8.83 0 0 1-2-6 10.68 10.68 0 0 1 2.35-7 7.18 7.18 0 0 1 5.74-2.85 5.48 5.48 0 0 1 4.32 2 7.59 7.59 0 0 1 1.73 5.15 11.81 11.81 0 0 1-.11 1.6H627.1a9.47 9.47 0 0 0-.15 1.63 5.19 5.19 0 0 0 1.29 3.72 4.27 4.27 0 0 0 3.24 1.37q2.38-.03 5.52-2.35zm-9.43-6.64h7.15a4.44 4.44 0 0 0-.81-2.81 2.72 2.72 0 0 0-2.27-1q-2.76-.04-4.04 3.81zM647.09 240.88l-.43 3 .09.06q2.73-3.34 5.66-3.34a3.63 3.63 0 0 1 3.08 1.46 6.09 6.09 0 0 1 1.09 3.76 8.66 8.66 0 0 1-.11 1.35l-1.64 10.76h-3.19l1.56-10.87a6.69 6.69 0 0 0 .09-1.06 3.24 3.24 0 0 0-.56-2 1.71 1.71 0 0 0-1.4-.71 3 3 0 0 0-1.09.24 6 6 0 0 0-1.29.74 15.06 15.06 0 0 0-1.7 1.52 4.23 4.23 0 0 0-1.05 1.3l-1.56 10.87h-3.19l2.39-17.07zM673.13 254.14l-.37 3.12a9.71 9.71 0 0 1-4.75 1.22 7.23 7.23 0 0 1-5.48-2.14 7.93 7.93 0 0 1-2-5.72 9.69 9.69 0 0 1 3.11-7.29 11 11 0 0 1 8-3 17.57 17.57 0 0 1 2.93.3l-.43 2.86a10.94 10.94 0 0 0-2.47-.28 7.68 7.68 0 0 0-5.58 2.15 6.79 6.79 0 0 0-2.22 5 5.44 5.44 0 0 0 1.25 3.79 4.38 4.38 0 0 0 3.42 1.38 9 9 0 0 0 4.59-1.39zM690.34 253.49l-.46 3.08a9.4 9.4 0 0 1-5.7 1.91 6.53 6.53 0 0 1-5.19-2.26 8.83 8.83 0 0 1-2-6 10.68 10.68 0 0 1 2.35-7 7.18 7.18 0 0 1 5.74-2.85 5.48 5.48 0 0 1 4.32 2 7.59 7.59 0 0 1 1.73 5.15 11.81 11.81 0 0 1-.11 1.6h-10.6a9.47 9.47 0 0 0-.15 1.63 5.19 5.19 0 0 0 1.29 3.72 4.27 4.27 0 0 0 3.24 1.37q2.37-.03 5.54-2.35zm-9.43-6.64h7.15a4.44 4.44 0 0 0-.81-2.81 2.72 2.72 0 0 0-2.27-1q-2.79-.04-4.07 3.81z"/></svg>